<?xml version="1.0" standalone="no"?>
<!DOCTYPE svg PUBLIC "-//W3C//DTD SVG 20010904//EN"
 "http://www.w3.org/TR/2001/REC-SVG-20010904/DTD/svg10.dtd">
<svg version="1.0" xmlns="http://www.w3.org/2000/svg"
 width="512.000000pt" height="512.000000pt" viewBox="0 0 512.000000 512.000000"
 preserveAspectRatio="xMidYMid meet">

<g transform="translate(0.000000,512.000000) scale(0.100000,-0.100000)"
fill="#000000" stroke="none">
<path d="M2380 5114 c-19 -2 -78 -9 -130 -14 -330 -36 -695 -160 -990 -336
-375 -224 -680 -529 -904 -904 -175 -292 -291 -632 -338 -990 -16 -123 -16
-497 0 -620 82 -623 356 -1150 820 -1581 256 -239 575 -425 922 -539 274 -91
491 -124 800 -124 228 0 329 9 530 50 689 141 1304 583 1674 1204 213 357 331
757 353 1195 5 121 4 133 -16 172 -38 76 -124 102 -201 63 -54 -28 -80 -80
-80 -162 0 -299 -88 -665 -229 -954 -225 -460 -584 -819 -1046 -1045 -846
-414 -1858 -254 -2552 404 -293 278 -530 690 -626 1088 -49 201 -61 309 -61
539 0 230 12 338 61 539 78 325 246 653 471 921 196 234 450 431 737 571 216
105 408 164 660 206 145 23 481 23 640 0 348 -51 652 -168 940 -360 96 -65
225 -165 225 -176 0 -3 -105 -110 -232 -238 l-233 -231 -95 68 c-203 147 -443
243 -700 280 -100 15 -339 15 -436 0 -715 -106 -1258 -649 -1364 -1363 -15
-101 -15 -333 0 -434 105 -714 649 -1258 1363 -1363 101 -15 333 -15 434 0
312 46 595 175 830 379 333 289 537 721 545 1154 2 106 -6 127 -66 171 -38 29
-124 29 -163 0 -50 -38 -61 -70 -73 -208 -15 -195 -52 -328 -134 -495 -178
-361 -531 -625 -931 -696 -117 -21 -333 -21 -450 0 -531 94 -956 519 -1050
1050 -21 117 -21 333 0 450 72 403 335 753 705 935 182 90 356 131 565 131
278 1 531 -76 744 -228 l63 -46 -237 -237 -238 -238 -60 29 c-93 44 -193 63
-301 56 -544 -31 -795 -687 -411 -1072 290 -290 782 -227 988 125 104 179 114
403 28 587 l-29 60 635 634 c348 349 643 649 655 667 16 26 19 45 16 86 -5 63
-15 76 -132 184 -381 347 -873 574 -1396 642 -88 12 -438 21 -500 14z m297
-2245 c123 -46 213 -176 213 -309 0 -179 -151 -330 -330 -330 -179 0 -330 151
-330 330 0 229 231 388 447 309z"/>
</g>
</svg>
