<?xml version="1.0" standalone="no"?>
<!DOCTYPE svg PUBLIC "-//W3C//DTD SVG 20010904//EN"
 "http://www.w3.org/TR/2001/REC-SVG-20010904/DTD/svg10.dtd">
<svg version="1.0" xmlns="http://www.w3.org/2000/svg"
 width="512.000000pt" height="512.000000pt" viewBox="0 0 512.000000 512.000000"
 preserveAspectRatio="xMidYMid meet">

<g transform="translate(0.000000,512.000000) scale(0.100000,-0.100000)"
fill="#000000" stroke="none">
<path d="M2310 5099 c-1021 -98 -1898 -817 -2194 -1801 -64 -211 -106 -467
-106 -640 l0 -88 214 0 214 0 6 78 c36 474 164 826 428 1182 85 114 292 322
406 409 337 255 739 405 1150 429 l117 7 2 218 2 217 -77 -1 c-42 -1 -115 -5
-162 -10z"/>
<path d="M3493 4913 c-4 -10 -39 -101 -80 -203 -44 -112 -69 -186 -62 -189 38
-12 260 -127 327 -169 197 -122 434 -340 570 -522 264 -356 392 -708 428
-1182 l6 -78 214 0 214 0 0 88 c0 173 -42 429 -106 640 -189 629 -614 1156
-1200 1490 -78 44 -284 142 -300 142 -2 0 -8 -8 -11 -17z"/>
<path d="M2420 4639 c-396 -23 -779 -167 -1115 -417 -118 -89 -317 -285 -401
-397 -257 -339 -401 -728 -430 -1152 l-7 -103 245 0 245 0 7 93 c12 183 44
319 117 501 138 343 406 637 739 810 213 110 383 157 662 182 l68 6 -1 239 c0
131 -3 240 -7 242 -4 1 -59 0 -122 -4z"/>
<path d="M3238 4268 c-48 -122 -86 -222 -85 -222 34 -9 276 -144 342 -191 236
-170 436 -424 544 -691 73 -182 105 -318 117 -501 l7 -93 245 0 245 0 -7 103
c-24 358 -132 693 -318 991 -167 266 -427 520 -701 685 -92 55 -268 141 -289
141 -8 0 -51 -96 -100 -222z"/>
<path d="M2394 4120 c-531 -56 -1001 -384 -1244 -869 -87 -174 -160 -456 -160
-617 l0 -64 229 0 229 0 6 38 c3 20 8 66 12 102 15 146 89 336 186 477 99 143
266 287 423 366 107 53 297 102 430 110 l40 2 2 233 2 232 -42 -1 c-23 -1 -74
-5 -113 -9z"/>
<path d="M3131 3997 c-5 -12 -43 -109 -86 -215 -42 -106 -76 -194 -74 -195 2
-1 31 -15 64 -31 159 -75 331 -221 433 -369 97 -141 171 -331 186 -477 4 -36
9 -82 12 -102 l6 -38 229 0 229 0 0 64 c0 161 -73 443 -160 617 -162 322 -429
583 -748 730 l-83 38 -8 -22z"/>
<path d="M2455 3629 c-404 -36 -769 -320 -908 -706 -29 -80 -52 -186 -62 -285
l-7 -68 210 0 210 0 11 74 c21 143 74 254 169 358 107 115 251 189 402 206
l65 7 2 207 c1 114 -1 209 -5 211 -4 1 -43 0 -87 -4z"/>
<path d="M2946 3528 c-8 -18 -43 -106 -79 -196 l-65 -162 33 -14 c104 -44 238
-168 299 -279 43 -78 63 -139 77 -233 l11 -74 209 0 c161 0 209 3 209 13 0 6
-5 53 -11 102 -44 357 -258 664 -580 830 l-90 46 -13 -33z"/>
<path d="M2495 3184 c-11 -2 -45 -9 -75 -15 -136 -26 -297 -136 -379 -258 -60
-89 -111 -234 -111 -317 l0 -24 193 0 193 0 13 49 c22 86 99 155 194 175 l27
6 -2 193 c-3 205 -2 201 -53 191z"/>
<path d="M2783 3123 c-4 -10 -35 -90 -70 -178 -58 -147 -62 -161 -46 -170 10
-5 39 -31 64 -56 34 -34 50 -60 60 -98 l13 -51 193 0 193 0 0 24 c0 83 -51
228 -111 317 -49 72 -143 158 -218 198 -69 36 -70 36 -78 14z"/>
<path d="M2486 2755 c-49 -17 -93 -59 -117 -110 -34 -74 -32 -76 79 -73 l97 3
0 94 c0 54 -4 96 -10 97 -5 2 -27 -3 -49 -11z"/>
<path d="M2603 2668 c-17 -46 -29 -86 -26 -90 2 -5 47 -8 99 -8 106 0 109 2
75 75 -18 41 -82 105 -104 105 -7 0 -27 -37 -44 -82z"/>
<path d="M10 2460 c0 -234 72 -588 169 -832 137 -345 339 -648 602 -903 450
-436 1013 -681 1661 -721 l107 -7 1 222 0 221 -50 0 c-184 0 -486 59 -685 135
-584 221 -1064 719 -1261 1310 -47 142 -90 337 -99 455 -3 41 -8 103 -11 138
l-6 62 -214 0 -214 0 0 -80z"/>
<path d="M470 2506 c0 -155 46 -413 106 -595 235 -707 818 -1235 1544 -1396
98 -22 288 -45 367 -45 l63 0 -3 243 -2 242 -100 6 c-507 33 -986 325 -1251
764 -27 45 -60 104 -73 133 -19 40 -30 52 -47 52 -59 0 -116 42 -135 97 -16
49 -4 96 35 133 l33 32 -13 57 c-8 31 -19 113 -26 184 l-12 127 -243 0 -243 0
0 -34z"/>
<path d="M990 2485 c0 -51 23 -228 36 -282 5 -18 13 -23 38 -23 69 0 136 -65
136 -133 0 -36 -23 -80 -54 -105 l-25 -19 28 -60 c89 -187 258 -396 436 -538
247 -198 579 -324 885 -337 l75 -3 3 230 2 231 -107 12 c-273 31 -496 142
-684 339 -160 168 -262 377 -290 590 -6 48 -13 103 -15 121 l-5 32 -229 0
-230 0 0 -55z"/>
<path d="M1480 2527 c0 -7 5 -51 10 -97 44 -360 266 -673 595 -842 109 -55
311 -108 416 -108 l48 0 -2 207 -2 207 -81 13 c-292 45 -512 267 -555 559
l-11 74 -209 0 c-163 0 -209 -3 -209 -13z"/>
<path d="M1930 2512 c0 -53 39 -182 76 -253 43 -81 133 -179 215 -233 71 -47
180 -85 264 -93 l65 -6 -3 193 -2 193 -47 12 c-84 21 -146 84 -170 173 l-12
42 -193 0 -193 0 0 -28z"/>
<path d="M2354 2508 c14 -74 103 -157 169 -158 l27 0 0 95 0 95 -101 0 -101 0
6 -32z"/>
<path d="M2570 2445 l0 -95 28 0 c65 1 154 84 168 158 l7 32 -102 0 -101 0 0
-95z"/>
<path d="M2792 2498 c-24 -89 -86 -152 -170 -173 l-47 -12 -2 -192 -3 -191 38
0 c58 0 157 27 225 61 126 62 228 162 289 282 31 63 68 191 68 239 l0 28 -193
0 -193 0 -12 -42z"/>
<path d="M3211 2466 c-43 -292 -263 -514 -555 -559 l-81 -13 -2 -207 -2 -207
48 0 c61 0 189 24 272 51 395 128 688 484 739 899 5 46 10 90 10 97 0 10 -46
13 -209 13 l-209 0 -11 -74z"/>
<path d="M3666 2508 c-2 -18 -9 -73 -15 -121 -28 -213 -130 -422 -290 -590
-188 -197 -411 -308 -684 -339 l-107 -12 2 -231 3 -230 75 3 c380 16 768 195
1043 481 l68 70 -17 26 c-24 37 -23 109 3 143 30 42 81 64 131 58 l42 -6 50
104 c92 191 144 385 157 584 l6 92 -231 0 -231 0 -5 -32z"/>
<path d="M4152 2413 c-20 -214 -72 -393 -167 -582 l-43 -86 24 -35 c30 -43 31
-103 4 -148 -32 -52 -113 -77 -162 -51 -18 10 -31 0 -117 -83 -109 -107 -183
-166 -301 -239 -207 -128 -470 -212 -715 -228 l-100 -6 -2 -242 -3 -243 63 0
c79 0 269 23 367 45 395 88 750 284 1038 573 345 347 554 792 602 1281 5 57
10 118 10 137 l0 34 -243 0 -243 0 -12 -127z"/>
<path d="M4676 2478 c-3 -35 -8 -97 -11 -138 -22 -276 -142 -628 -303 -890
-279 -452 -737 -797 -1243 -934 -159 -43 -374 -76 -499 -76 l-50 0 0 -221 1
-222 107 7 c368 23 690 106 997 256 587 288 1025 762 1266 1368 97 244 169
598 169 832 l0 80 -214 0 -214 0 -6 -62z"/>
</g>
</svg>
